# xmcd
#
# Track frame offsets:
#	150
#	32147
#	58141
#	96658
#	132250
#	159190
#	188015
#	221591
#	250026
#	271775
#
# Disc length: 3980
#
# Revision: 1
# Processed by: cddbd v1.5.1PL0 Copyright (c) Steve Scherf et al.
# Submitted via: dBpowerAMP V4.0
# Normalized: r0:TRMNUM
#
DISCID=890f8a0a
DTITLE=St Germain - Tourist
DYEAR=1900
DGENRE=
TTITLE0=Rose Rouge
TTITLE1=Montego Bay Spleen
TTITLE2=So Flute
TTITLE3=Land Of ...
TTITLE4=Latin Note
TTITLE5=Sure Thing
TTITLE6=Pont Des Arts
TTITLE7=La Goutte D'or
TTITLE8=What You Think About
TTITLE9=St Germain
EXTD=
EXTT0=
EXTT1=
EXTT2=
EXTT3=
EXTT4=
EXTT5=
EXTT6=
EXTT7=
EXTT8=
EXTT9=
PLAYORDER=
